<?xml version="1.0" encoding="utf-8"?>
<!-- Generator: Adobe Illustrator 24.2.1, SVG Export Plug-In . SVG Version: 6.00 Build 0)  -->
<svg version="1.1" id="Layer_1" xmlns="http://www.w3.org/2000/svg" xmlns:xlink="http://www.w3.org/1999/xlink" x="0px" y="0px"
	 viewBox="0 0 512 512" style="enable-background:new 0 0 512 512;" xml:space="preserve">
<path d="M321.7,250.6c32.4-21.3,53.8-57.9,53.8-99.5c0-65.6-53.4-119-119-119c-65.6,0-119,53.4-119,119c0,41.4,21.3,77.9,53.4,99.2
	c-34.9,10.5-66.8,29.6-93.3,56.1C55.3,348.7,32,405,32,464.8v16h448v-16C480,364.1,413.2,278.8,321.7,250.6z M169.5,151.1
	c0-48,39-87,87-87c48,0,87,39,87,87s-39,87-87,87C208.5,238.1,169.5,199.1,169.5,151.1z M64.7,448.8c3.7-45.3,23.1-87.3,55.6-119.8
	c36.3-36.3,84.5-56.2,135.8-56.2c100.5,0,183.2,77.6,191.3,176H64.7z"/>
</svg>
